<svg width="960" height="500" version="1.1" xmlns="http://www.w3.org/2000/svg"><defs><clipPath id="clip"><rect width="800" height="300"></rect></clipPath></defs><style>
    svg {
          font: 10px sans-serif;
        }
        .axis path,
        .axis line {
          fill: none;
          stroke: #000;
          shape-rendering: crispEdges;
        }

        .axis text {
            font-family: sans-serif;
            font-size: 12px;
        }

        .brush .extent {
          stroke: #fff;
          fill-opacity: .125;
          shape-rendering: crispEdges;
        }
</style><g transform="translate(80,100)"><path clip-path="url(#clip)" fill="#1f77b4" d="M0,108.77390326200003C1.5803101531240944,106.64641166378291,17.94601673339455,74.08518014399569,26.666666666666668,72.8739192154286S44.66581993490769,102.75133022043691,53.333333333333336,101.36613166800004S76.46370321149676,68.70112602309418,80,64.35045317228574S101.09366881538492,31.45185718956789,106.66666666666667,35.750630692285725S124.59809202816412,104.33100662190976,133.33333333333331,105.48951804600003S151.18655420640565,107.7423425089184,160,106.92692014542857S180.58918870712185,59.9699238638847,186.66666666666666,55.83636753085717S208.35815815008908,41.488653438694485,213.33333333333334,45.90129565200003S235.91595596145507,130.98622380490667,240,135.4160316977143S257.96274518488576,105.018777230015,266.66666666666663,103.74994241485717S284.79349482736944,125.91472926361513,293.3333333333333,127.6412384297143S316.5954635037376,120.53820974516665,320,116.21713605000004S339.1664794938188,52.60074249324912,346.6666666666667,49.37343358371431S370.9483821322312,89.3294829706277,373.3333333333333,93.26795653285716S393.34441784415475,133.5919406967681,400,137.44732089085718S417.78359751669655,124.38973555508802,426.6666666666667,124.16236549714287S444.49302779560514,125.51485162938586,453.3333333333333,124.85949549085717S472.721623604607,84.28082711210114,480,87.70455550628573S501.4837950587277,145.5646781890759,506.66666666666663,149.9473499477143S529.221663095954,137.2355565904344,533.3333333333333,132.80358775628574S556.4498905901766,96.812889817636,560,92.45935662428573S578.6952743632197,70.10479993572794,586.6666666666666,67.4004099454286S604.8592197421707,65.67498657790372,613.3333333333334,63.800192459142856S632.1791560832476,45.82118224783383,640,48.711340206000045S659.3919741455276,80.08251339857277,666.6666666666667,83.5092877191429S684.5145323398664,74.62041757296217,693.3333333333334,73.83422980800005S711.777213860819,68.84275113056812,720,71.18309735657145S737.8408816691277,112.440528135426,746.6666666666666,113.18681318657144S764.4444984060151,112.41297218164154,773.3333333333334,112.43487322028571S795.5792903320771,114.06491099970636,800,114.3888316011429L800,300C795.5555555555555,300,782.2222222222223,300,773.3333333333334,300S755.5555555555555,300,746.6666666666666,300S728.8888888888889,300,720,300S702.2222222222223,300,693.3333333333334,300S675.5555555555557,300,666.6666666666667,300S648.8888888888889,300,640,300S622.2222222222223,300,613.3333333333334,300S595.5555555555555,300,586.6666666666666,300S568.8888888888889,300,560,300S542.2222222222222,300,533.3333333333333,300S515.5555555555555,300,506.66666666666663,300S488.8888888888889,300,480,300S462.2222222222222,300,453.3333333333333,300S435.55555555555554,300,426.6666666666667,300S408.8888888888889,300,400,300S382.2222222222222,300,373.3333333333333,300S355.55555555555554,300,346.6666666666667,300S328.8888888888889,300,320,300S302.22222222222223,300,293.3333333333333,300S275.55555555555554,300,266.66666666666663,300S248.88888888888889,300,240,300S222.22222222222223,300,213.33333333333334,300S195.55555555555554,300,186.66666666666666,300S168.88888888888889,300,160,300S142.2222222222222,300,133.33333333333331,300S115.55555555555556,300,106.66666666666667,300S88.88888888888889,300,80,300S62.22222222222222,300,53.333333333333336,300S35.55555555555556,300,26.666666666666668,300S4.444444444444445,300,0,300Z"></path><g class="x axis" transform="translate(0,300)"><g class="tick" transform="translate(0,0)" style="opacity: 1;"><line y2="6" x2="0"></line><text dy=".71em" y="9" x="0" style="text-anchor: middle;">01</text></g><g class="tick" transform="translate(26.666666666666668,0)" style="opacity: 1;"><line y2="6" x2="0"></line><text dy=".71em" y="9" x="0" style="text-anchor: middle;">02</text></g><g class="tick" transform="translate(53.333333333333336,0)" style="opacity: 1;"><line y2="6" x2="0"></line><text dy=".71em" y="9" x="0" style="text-anchor: middle;">03</text></g><g class="tick" transform="translate(80,0)" style="opacity: 1;"><line y2="6" x2="0"></line><text dy=".71em" y="9" x="0" style="text-anchor: middle;">04</text></g><g class="tick" transform="translate(106.66666666666667,0)" style="opacity: 1;"><line y2="6" x2="0"></line><text dy=".71em" y="9" x="0" style="text-anchor: middle;">05</text></g><g class="tick" transform="translate(133.33333333333331,0)" style="opacity: 1;"><line y2="6" x2="0"></line><text dy=".71em" y="9" x="0" style="text-anchor: middle;">06</text></g><g class="tick" transform="translate(160,0)" style="opacity: 1;"><line y2="6" x2="0"></line><text dy=".71em" y="9" x="0" style="text-anchor: middle;">07</text></g><g class="tick" transform="translate(186.66666666666666,0)" style="opacity: 1;"><line y2="6" x2="0"></line><text dy=".71em" y="9" x="0" style="text-anchor: middle;">08</text></g><g class="tick" transform="translate(213.33333333333334,0)" style="opacity: 1;"><line y2="6" x2="0"></line><text dy=".71em" y="9" x="0" style="text-anchor: middle;">09</text></g><g class="tick" transform="translate(240,0)" style="opacity: 1;"><line y2="6" x2="0"></line><text dy=".71em" y="9" x="0" style="text-anchor: middle;">10</text></g><g class="tick" transform="translate(266.66666666666663,0)" style="opacity: 1;"><line y2="6" x2="0"></line><text dy=".71em" y="9" x="0" style="text-anchor: middle;">11</text></g><g class="tick" transform="translate(293.3333333333333,0)" style="opacity: 1;"><line y2="6" x2="0"></line><text dy=".71em" y="9" x="0" style="text-anchor: middle;">12</text></g><g class="tick" transform="translate(320,0)" style="opacity: 1;"><line y2="6" x2="0"></line><text dy=".71em" y="9" x="0" style="text-anchor: middle;">13</text></g><g class="tick" transform="translate(346.6666666666667,0)" style="opacity: 1;"><line y2="6" x2="0"></line><text dy=".71em" y="9" x="0" style="text-anchor: middle;">14</text></g><g class="tick" transform="translate(373.3333333333333,0)" style="opacity: 1;"><line y2="6" x2="0"></line><text dy=".71em" y="9" x="0" style="text-anchor: middle;">15</text></g><g class="tick" transform="translate(400,0)" style="opacity: 1;"><line y2="6" x2="0"></line><text dy=".71em" y="9" x="0" style="text-anchor: middle;">16</text></g><g class="tick" transform="translate(426.6666666666667,0)" style="opacity: 1;"><line y2="6" x2="0"></line><text dy=".71em" y="9" x="0" style="text-anchor: middle;">17</text></g><g class="tick" transform="translate(453.3333333333333,0)" style="opacity: 1;"><line y2="6" x2="0"></line><text dy=".71em" y="9" x="0" style="text-anchor: middle;">18</text></g><g class="tick" transform="translate(480,0)" style="opacity: 1;"><line y2="6" x2="0"></line><text dy=".71em" y="9" x="0" style="text-anchor: middle;">19</text></g><g class="tick" transform="translate(506.66666666666663,0)" style="opacity: 1;"><line y2="6" x2="0"></line><text dy=".71em" y="9" x="0" style="text-anchor: middle;">20</text></g><g class="tick" transform="translate(533.3333333333333,0)" style="opacity: 1;"><line y2="6" x2="0"></line><text dy=".71em" y="9" x="0" style="text-anchor: middle;">21</text></g><g class="tick" transform="translate(560,0)" style="opacity: 1;"><line y2="6" x2="0"></line><text dy=".71em" y="9" x="0" style="text-anchor: middle;">22</text></g><g class="tick" transform="translate(586.6666666666666,0)" style="opacity: 1;"><line y2="6" x2="0"></line><text dy=".71em" y="9" x="0" style="text-anchor: middle;">23</text></g><g class="tick" transform="translate(613.3333333333334,0)" style="opacity: 1;"><line y2="6" x2="0"></line><text dy=".71em" y="9" x="0" style="text-anchor: middle;">24</text></g><g class="tick" transform="translate(640,0)" style="opacity: 1;"><line y2="6" x2="0"></line><text dy=".71em" y="9" x="0" style="text-anchor: middle;">25</text></g><g class="tick" transform="translate(666.6666666666667,0)" style="opacity: 1;"><line y2="6" x2="0"></line><text dy=".71em" y="9" x="0" style="text-anchor: middle;">26</text></g><g class="tick" transform="translate(693.3333333333334,0)" style="opacity: 1;"><line y2="6" x2="0"></line><text dy=".71em" y="9" x="0" style="text-anchor: middle;">27</text></g><g class="tick" transform="translate(720,0)" style="opacity: 1;"><line y2="6" x2="0"></line><text dy=".71em" y="9" x="0" style="text-anchor: middle;">28</text></g><g class="tick" transform="translate(746.6666666666666,0)" style="opacity: 1;"><line y2="6" x2="0"></line><text dy=".71em" y="9" x="0" style="text-anchor: middle;">29</text></g><g class="tick" transform="translate(773.3333333333334,0)" style="opacity: 1;"><line y2="6" x2="0"></line><text dy=".71em" y="9" x="0" style="text-anchor: middle;">30</text></g><g class="tick" transform="translate(800,0)" style="opacity: 1;"><line y2="6" x2="0"></line><text dy=".71em" y="9" x="0" style="text-anchor: middle;">31</text></g><path class="domain" d="M0,6V0H800V6"></path></g><g class="y axis"><g class="tick" transform="translate(0,300)" style="opacity: 1;"><line x2="-6" y2="0"></line><text dy=".32em" x="-9" y="0" style="text-anchor: end;">0.000</text></g><g class="tick" transform="translate(0,257.14285714285717)" style="opacity: 1;"><line x2="-6" y2="0"></line><text dy=".32em" x="-9" y="0" style="text-anchor: end;">0.005</text></g><g class="tick" transform="translate(0,214.28571428571428)" style="opacity: 1;"><line x2="-6" y2="0"></line><text dy=".32em" x="-9" y="0" style="text-anchor: end;">0.010</text></g><g class="tick" transform="translate(0,171.42857142857144)" style="opacity: 1;"><line x2="-6" y2="0"></line><text dy=".32em" x="-9" y="0" style="text-anchor: end;">0.015</text></g><g class="tick" transform="translate(0,128.57142857142858)" style="opacity: 1;"><line x2="-6" y2="0"></line><text dy=".32em" x="-9" y="0" style="text-anchor: end;">0.020</text></g><g class="tick" transform="translate(0,85.71428571428571)" style="opacity: 1;"><line x2="-6" y2="0"></line><text dy=".32em" x="-9" y="0" style="text-anchor: end;">0.025</text></g><g class="tick" transform="translate(0,42.857142857142904)" style="opacity: 1;"><line x2="-6" y2="0"></line><text dy=".32em" x="-9" y="0" style="text-anchor: end;">0.030</text></g><g class="tick" transform="translate(0,0)" style="opacity: 1;"><line x2="-6" y2="0"></line><text dy=".32em" x="-9" y="0" style="text-anchor: end;">0.035</text></g><path class="domain" d="M-6,0H0V300H-6"></path></g></g><text transform="rotate(-90)" y="0" x="-250" dy="1em" style="font-size: 16px;">Close Ratio</text><text y="440" x="480" dy="1em" text-anchor="middle" style="font-size: 16px;">Day in month</text><text y="30" x="480" dy="1em" text-anchor="middle" style="font-size: 16px;">Close ratio VS. Day in month</text></svg>